<?xml version="1.0" standalone="no"?>
<!DOCTYPE svg PUBLIC "-//W3C//DTD SVG 20010904//EN"
 "http://www.w3.org/TR/2001/REC-SVG-20010904/DTD/svg10.dtd">
<svg version="1.0" xmlns="http://www.w3.org/2000/svg"
 width="1552.000000pt" height="1552.000000pt" viewBox="0 0 1552.000000 1552.000000"
 preserveAspectRatio="xMidYMid meet">
<metadata>
Created by potrace 1.11, written by Peter Selinger 2001-2013
</metadata>
<g transform="translate(0.000000,1552.000000) scale(0.100000,-0.100000)"
fill="#000000" stroke="none">
<path d="M1225 9993 c-38 -19 -72 -37 -75 -41 -13 -18 -119 -102 -128 -102 -6
0 -49 -13 -96 -29 -46 -16 -87 -26 -90 -23 -3 3 -6 1 -6 -5 0 -6 -10 -14 -22
-18 -13 -4 -25 -8 -28 -9 -3 -1 -27 -12 -55 -25 -27 -13 -53 -23 -57 -23 -5 1
-8 -2 -8 -8 0 -5 -4 -10 -10 -10 -5 0 -47 -22 -92 -49 -182 -108 -345 -316
-389 -497 -6 -27 -15 -53 -19 -59 -6 -10 -5 -145 3 -175 18 -79 90 -222 143
-287 38 -46 107 -88 130 -79 8 3 14 16 15 28 0 13 14 61 30 108 16 47 30 91
31 98 1 6 6 12 11 12 6 0 8 3 4 6 -10 10 76 154 140 236 57 71 210 208 233
208 4 0 5 -17 3 -37 -1 -21 -4 -103 -6 -184 -2 -80 -7 -150 -11 -157 -4 -7 -2
-12 4 -12 6 0 9 -4 6 -9 -3 -5 -8 -84 -11 -177 -3 -93 -8 -221 -10 -284 -2
-63 -7 -198 -11 -300 -4 -102 -8 -218 -8 -257 -1 -40 -3 -73 -6 -73 -5 0 -7
-55 -9 -228 l-1 -63 -96 2 c-53 1 -111 5 -129 9 -18 4 -37 5 -42 1 -11 -7 -10
-169 1 -216 17 -73 38 -135 48 -141 6 -4 35 -9 64 -11 79 -6 139 -18 137 -29
-2 -12 -13 -215 -19 -344 -2 -52 -4 -239 -4 -415 0 -409 4 -462 45 -615 15
-52 29 -105 32 -117 5 -23 12 -26 73 -26 49 1 101 9 162 27 29 8 55 15 58 14
3 -1 16 5 30 12 14 8 30 15 37 16 17 3 134 63 168 87 41 28 46 38 39 67 -3 14
-8 34 -11 45 -10 41 -35 191 -38 230 -13 166 -16 212 -20 300 -2 55 -7 161
-11 235 -3 74 -7 217 -8 318 l-2 182 23 1 c13 1 26 2 31 3 4 1 32 6 62 10 30
4 62 9 70 11 8 2 27 5 43 8 15 3 35 8 45 11 9 3 28 7 42 10 14 2 58 13 98 24
60 17 72 18 72 6 0 -8 9 -33 19 -57 31 -68 127 -325 164 -438 19 -57 53 -162
76 -234 42 -131 83 -245 107 -300 7 -16 25 -59 39 -95 100 -244 246 -449 380
-535 89 -57 164 -78 279 -79 145 0 207 12 313 60 50 22 140 102 162 141 8 16
5 19 -15 21 -41 3 -153 59 -224 112 -71 53 -230 216 -230 237 0 6 -4 13 -8 15
-12 4 -102 136 -102 148 0 5 -4 10 -10 10 -5 0 -9 3 -8 8 1 4 -5 18 -13 32
-33 53 -79 130 -79 135 0 2 -23 53 -51 112 -28 59 -52 113 -53 118 -1 6 -4 15
-8 20 -15 25 -121 307 -133 355 -1 3 -7 19 -14 35 -6 17 -21 55 -32 85 -30 80
-35 92 -47 120 -6 14 -21 50 -32 80 -12 30 -26 64 -30 75 -16 40 -19 55 -11
55 19 0 183 131 262 210 86 85 199 227 199 248 0 7 4 12 9 12 14 0 127 239
154 325 69 221 90 493 53 695 -3 14 -7 41 -10 60 -9 60 -64 217 -97 278 -17
31 -39 70 -48 87 -9 16 -20 35 -26 42 -5 7 -23 31 -40 53 -57 76 -114 131
-261 249 -5 4 -21 14 -35 21 -13 7 -26 16 -29 19 -3 3 -21 14 -40 24 -19 11
-46 25 -60 32 -51 27 -161 71 -200 80 -8 2 -53 13 -100 24 -116 28 -143 32
-230 36 -41 3 -77 5 -80 6 -3 1 -34 0 -70 -1 -204 -7 -193 -8 -197 25 -11 88
-82 106 -198 48z m438 -557 c15 -3 37 -8 50 -10 195 -39 381 -149 500 -297 20
-25 37 -51 37 -57 0 -6 4 -12 8 -14 13 -5 79 -146 97 -208 24 -84 29 -133 29
-280 0 -271 -37 -410 -158 -590 -41 -62 -155 -186 -207 -225 -25 -19 -148 -95
-154 -95 -3 0 -27 -11 -54 -24 -76 -36 -450 -133 -464 -120 -2 3 -2 107 0 232
2 125 5 338 7 473 1 135 6 251 10 257 3 6 2 13 -3 16 -5 3 -5 21 -1 41 5 21 4
35 -2 35 -5 0 -6 5 -3 11 4 6 9 90 11 187 6 303 15 596 18 628 6 56 8 57 135
51 64 -3 128 -8 144 -11z"/>
<path d="M12787 9184 c-2 -2 -12 -5 -23 -8 -62 -12 -84 -19 -84 -27 0 -5 -7
-9 -15 -9 -22 0 -118 -100 -140 -145 -43 -92 -54 -229 -25 -323 14 -43 76
-122 96 -122 7 0 17 -7 24 -15 12 -14 73 -27 140 -30 96 -4 193 41 290 135 41
38 70 70 65 70 -4 0 0 9 10 20 55 61 88 197 66 275 -30 108 -175 189 -330 184
-39 -1 -72 -3 -74 -5z m194 -265 c12 -18 1 -66 -20 -92 -52 -65 -106 -116
-144 -136 -119 -61 -160 32 -59 136 91 93 195 136 223 92z"/>
<path d="M4185 8393 c-16 -2 -50 -8 -75 -14 -25 -6 -56 -13 -70 -16 -42 -7
-181 -77 -255 -127 -75 -51 -249 -222 -260 -256 -3 -11 -10 -20 -14 -20 -4 0
-23 -24 -42 -52 -41 -65 -141 -258 -133 -258 4 0 0 -10 -8 -22 -25 -40 -77
-219 -94 -324 -3 -20 -8 -46 -10 -58 -8 -41 -17 -182 -17 -261 0 -84 11 -243
17 -254 2 -3 7 -22 10 -41 8 -53 45 -167 74 -229 62 -134 176 -265 288 -333
80 -49 227 -98 303 -101 34 -1 61 -4 61 -7 0 -12 202 6 265 23 114 32 228 103
339 212 46 45 106 121 106 134 0 6 3 11 8 11 4 0 12 10 18 23 6 12 21 40 32
62 19 37 60 150 67 185 2 8 7 33 12 55 18 79 -4 128 -51 119 -24 -4 -28 -8
-58 -64 -59 -106 -73 -128 -112 -174 -91 -110 -233 -204 -347 -230 -75 -18
-203 -14 -276 8 -50 16 -146 74 -171 105 -72 88 -106 184 -130 369 -8 58 -2
86 13 62 10 -17 96 -57 140 -65 57 -11 132 -12 185 -2 53 10 75 15 75 17 0 1
7 3 15 5 35 7 152 69 219 115 96 68 218 194 286 296 30 45 55 86 55 89 0 4 8
19 18 33 10 15 27 52 39 82 113 292 84 580 -74 751 -53 57 -143 115 -211 134
-54 16 -172 25 -237 18z m162 -294 c15 -23 28 -48 29 -57 1 -10 5 -28 8 -42 7
-29 9 -205 2 -236 -2 -12 -7 -39 -10 -60 -4 -22 -9 -48 -12 -59 -8 -27 -57
-139 -64 -145 -3 -3 -18 -23 -35 -45 -58 -77 -157 -151 -290 -214 -67 -32
-155 -66 -200 -77 -5 -2 -33 -9 -62 -17 l-51 -15 4 37 c7 64 16 115 31 176 9
37 8 37 16 55 3 8 13 39 23 69 20 66 94 216 143 291 20 30 38 60 41 67 3 6 38
50 77 97 122 143 263 247 305 225 10 -6 30 -28 45 -50z"/>
<path d="M6005 8383 c-106 -20 -105 -20 -189 -48 -71 -23 -184 -75 -256 -116
-43 -24 -179 -129 -208 -158 -65 -69 -90 -100 -127 -156 -61 -92 -75 -126
-102 -240 -12 -52 -9 -209 4 -267 24 -105 72 -174 193 -278 34 -29 230 -135
230 -124 0 3 12 -2 28 -10 25 -14 175 -54 232 -62 32 -5 69 -11 100 -19 55
-13 118 -26 173 -35 118 -21 231 -67 284 -115 28 -25 38 -98 21 -140 -31 -77
-155 -158 -293 -192 -69 -17 -108 -20 -194 -18 -273 9 -422 130 -430 350 -1
33 -3 61 -5 62 -2 3 -95 -42 -120 -59 -26 -17 -136 -130 -136 -139 0 -4 -6
-14 -13 -21 -19 -20 -65 -118 -77 -165 -55 -218 100 -366 446 -427 74 -13 339
-16 404 -4 67 13 102 22 185 50 145 48 250 112 332 200 179 196 213 485 74
629 -9 9 -23 25 -32 35 -52 60 -187 125 -439 211 -99 33 -221 92 -288 138 -24
17 -51 35 -59 40 -58 38 -142 153 -168 230 -78 226 59 488 306 586 95 37 212
44 267 15 37 -19 85 -88 85 -123 0 -13 3 -25 7 -28 4 -2 6 -15 5 -27 -15 -123
-18 -132 -76 -223 -23 -36 -40 -67 -38 -69 13 -11 58 -30 112 -47 77 -25 171
-26 251 -2 32 10 103 87 109 118 2 11 9 40 16 65 16 55 21 206 10 267 -37 194
-218 321 -469 328 -47 1 -116 -4 -155 -12z"/>
<path d="M7888 8395 c-2 -2 -20 -6 -40 -9 -243 -38 -494 -211 -659 -454 -54
-79 -125 -210 -149 -272 -7 -19 -19 -48 -26 -65 -22 -52 -43 -127 -65 -225
-22 -100 -25 -119 -34 -210 -8 -69 -8 -323 -1 -347 2 -10 7 -38 11 -63 3 -25
7 -52 9 -60 7 -33 18 -76 26 -100 4 -14 11 -34 15 -45 3 -11 6 -21 5 -23 -3
-7 94 -181 118 -212 47 -60 129 -137 184 -173 53 -35 161 -82 208 -90 14 -3
36 -8 50 -11 56 -15 220 -21 290 -12 159 20 297 94 440 236 58 58 88 98 137
186 34 60 77 167 87 217 2 7 6 23 9 37 15 57 15 84 2 116 -7 18 -19 31 -27 30
-43 -7 -58 -22 -89 -84 -19 -37 -37 -71 -41 -77 -29 -40 -114 -141 -122 -147
-6 -3 -24 -18 -41 -33 -46 -41 -154 -102 -215 -122 -55 -18 -211 -24 -272 -10
-91 20 -192 91 -242 171 -31 50 -79 174 -75 192 1 5 -1 20 -5 34 -3 14 -8 48
-10 75 -2 28 -5 55 -6 60 -5 24 2 24 38 1 38 -26 122 -59 122 -49 0 3 6 1 13
-4 12 -10 133 -9 177 1 111 25 166 49 276 122 73 48 197 159 250 225 45 55
123 178 130 203 3 14 10 26 15 26 5 0 9 4 9 9 0 5 8 26 17 47 20 46 17 38 43
139 35 134 29 350 -11 445 -37 86 -61 122 -119 181 -100 101 -191 140 -342
144 -48 1 -89 1 -90 0z m144 -272 c53 -59 73 -196 53 -373 -13 -111 -78 -259
-142 -325 -104 -106 -238 -185 -408 -243 -141 -47 -172 -51 -168 -22 8 75 16
124 29 175 21 84 58 189 66 193 5 2 8 10 8 18 0 16 62 137 73 142 4 2 7 9 7
15 0 13 93 158 125 196 103 121 195 203 271 241 39 20 55 17 86 -17z"/>
<path d="M10737 8300 c-37 -15 -67 -25 -67 -21 0 3 -4 1 -8 -4 -4 -6 -34 -21
-67 -34 -33 -13 -74 -29 -92 -37 -17 -8 -36 -14 -41 -14 -6 0 7 -38 29 -84 21
-46 46 -117 55 -157 23 -106 31 -150 39 -229 3 -30 8 -66 10 -79 2 -14 7 -50
10 -80 3 -31 8 -69 10 -86 6 -46 17 -155 21 -200 11 -156 36 -311 71 -450 30
-120 29 -116 36 -135 3 -8 15 -44 26 -80 41 -135 154 -390 228 -515 22 -39 38
-53 69 -63 70 -24 183 -17 299 19 75 23 122 64 203 177 12 17 22 34 22 36 0 3
16 30 35 60 33 51 157 299 187 374 7 17 16 32 19 32 3 0 6 6 6 13 1 6 23 66
51 132 68 167 131 354 158 476 2 10 6 27 8 37 16 66 46 203 51 232 3 19 9 44
12 55 3 11 7 34 8 50 3 34 13 108 20 144 4 20 16 169 17 216 2 56 -15 122 -38
146 -79 82 -343 51 -462 -55 -21 -18 -22 -51 -3 -66 13 -9 53 -113 56 -144 2
-17 4 -31 5 -31 10 0 -2 -254 -15 -325 -3 -14 -8 -42 -11 -64 -3 -21 -8 -48
-10 -60 -2 -11 -7 -37 -10 -56 -3 -19 -13 -66 -22 -105 -9 -38 -15 -74 -14
-79 2 -4 -3 -14 -9 -22 -6 -8 -9 -14 -6 -14 3 0 -1 -24 -10 -52 -8 -29 -16
-57 -18 -63 -1 -5 -8 -30 -15 -55 -7 -25 -14 -49 -16 -55 -1 -5 -19 -62 -39
-125 -88 -270 -201 -490 -252 -490 -11 0 -57 53 -59 68 0 4 -3 14 -7 22 -7 17
-47 153 -51 172 -2 7 -6 29 -10 48 -4 19 -9 44 -11 55 -2 11 -4 20 -5 20 -1 0
-3 14 -5 30 -2 17 -6 41 -8 55 -3 14 -8 54 -12 90 -3 36 -8 83 -11 105 -2 22
-6 67 -9 100 -2 33 -6 83 -9 110 -13 145 -26 332 -31 445 -2 47 -6 112 -9 145
-3 33 -8 106 -10 163 -11 207 -22 249 -81 301 -32 28 -43 32 -89 30 -28 -1
-81 -14 -119 -29z"/>
<path d="M10005 8282 c-3 -3 -20 -6 -39 -8 -18 -1 -44 -5 -57 -9 -31 -10 -113
-47 -119 -55 -3 -3 -27 -22 -55 -42 -27 -20 -68 -56 -90 -80 -49 -52 -145
-184 -145 -198 0 -5 -4 -10 -9 -10 -5 0 -13 -10 -17 -22 -4 -13 -10 -25 -13
-28 -8 -6 -72 -140 -91 -190 -13 -35 -36 -70 -26 -40 2 8 7 47 11 85 3 39 8
88 10 110 4 39 10 125 21 275 3 41 7 87 8 102 5 45 -22 61 -91 54 -107 -10
-220 -51 -335 -119 l-67 -40 0 -236 c0 -224 -3 -326 -16 -521 -30 -478 -22
-1137 15 -1174 6 -6 10 -17 10 -26 0 -18 41 -51 84 -66 82 -29 241 15 364 102
2 1 -6 33 -17 70 -19 65 -24 97 -38 254 -12 145 -4 353 17 459 5 25 12 58 15
74 18 95 35 158 76 276 102 292 245 479 373 486 40 3 93 -19 119 -48 59 -66
82 -214 53 -337 -9 -37 -12 -68 -7 -73 17 -17 150 64 220 133 158 157 222 314
185 454 -7 27 -13 52 -12 55 1 7 -8 32 -33 88 -10 24 -19 47 -19 53 0 5 -4 10
-10 10 -5 0 -10 6 -10 13 0 17 -110 133 -135 142 -40 14 -125 32 -130 27z"/>
<path d="M14947 8249 c-32 -10 -83 -30 -113 -45 -50 -25 -56 -32 -69 -78 -17
-60 -41 -196 -50 -284 -4 -35 -8 -72 -10 -82 -3 -17 -8 -62 -21 -210 -9 -103
-12 -145 -19 -230 -11 -147 -17 -175 -65 -298 -40 -102 -96 -218 -117 -240 -7
-7 -13 -17 -13 -22 0 -5 -6 -15 -12 -22 -7 -7 -26 -32 -42 -56 -40 -59 -125
-133 -189 -166 -64 -32 -128 -36 -178 -11 -42 21 -99 74 -99 92 0 7 -3 13 -8
13 -10 0 -49 107 -58 160 -9 57 -9 151 1 215 5 28 8 58 7 67 0 10 4 20 9 23 5
4 7 10 4 14 -6 10 38 185 64 256 26 70 74 169 83 173 4 2 8 8 8 13 0 6 19 38
41 72 89 133 266 277 466 380 45 23 83 48 83 55 0 27 -70 158 -100 187 -24 23
-41 29 -79 31 -117 6 -355 -115 -549 -279 -181 -153 -307 -324 -415 -567 -40
-88 -94 -301 -82 -321 4 -5 3 -9 -2 -9 -9 0 -15 -80 -16 -215 0 -95 7 -175 22
-237 5 -21 7 -38 5 -38 -3 0 0 -9 6 -21 6 -11 13 -30 16 -42 6 -31 45 -126 66
-162 10 -16 22 -41 28 -54 30 -68 215 -211 291 -225 13 -3 24 -5 24 -6 0 -5
51 -12 116 -15 99 -4 156 8 259 57 152 73 259 173 347 324 26 46 51 84 54 84
3 0 6 -12 6 -27 1 -56 15 -149 25 -166 5 -10 7 -21 4 -24 -6 -6 47 -114 77
-157 32 -45 130 -86 216 -90 80 -3 165 9 188 27 48 40 103 117 82 117 -37 0
-79 33 -115 90 -29 48 -35 66 -40 140 -3 47 -6 90 -5 95 5 197 12 392 17 470
17 323 23 468 29 635 3 80 7 195 10 255 8 162 8 330 0 355 -6 19 -13 21 -68
19 -34 -1 -88 -10 -120 -20z"/>
<path d="M12905 8229 c-57 -8 -98 -15 -123 -23 -9 -3 -28 -7 -42 -10 -14 -3
-34 -7 -45 -10 -32 -7 -129 -47 -142 -58 -7 -6 -13 -7 -13 -3 0 4 -11 -3 -23
-17 -22 -23 -23 -33 -21 -109 2 -46 3 -84 4 -84 1 0 3 -31 5 -70 2 -38 7 -113
10 -165 4 -52 6 -101 6 -107 -1 -33 -1 -60 2 -83 2 -14 0 -33 -5 -42 -4 -9 -5
-19 -1 -21 9 -6 8 -115 0 -123 -3 -3 -1 -19 3 -35 5 -16 6 -29 2 -29 -9 0 -16
-254 -16 -565 1 -213 5 -309 18 -410 3 -17 7 -51 10 -77 7 -63 16 -97 33 -130
12 -25 19 -28 64 -28 107 0 291 56 304 93 2 7 7 127 10 267 3 140 7 271 9 290
7 54 22 242 31 370 7 105 13 176 20 240 11 109 15 146 20 205 3 33 7 76 10 95
2 19 7 69 11 110 3 41 8 93 10 115 19 200 23 390 7 406 -14 14 -88 17 -158 8z"/>
</g>
</svg>
